<svg width="31" height="29" viewBox="0 0 31 29" fill="none" xmlns="http://www.w3.org/2000/svg">
<path opacity="0.1" d="M29.4033 0.730337C29.4033 0.730337 -2.99272 -1.28042 0.792493 22.1286C0.792493 22.1286 0.0337486 26.2642 3.67404 28.1433C3.67404 28.1433 3.73373 26.3872 6.99891 26.993C8.16459 27.1944 9.34928 27.2533 10.5284 27.1686C12.1033 27.0491 13.5985 26.4085 14.791 25.3423V25.3423C14.791 25.3423 23.913 21.4613 27.451 6.11283C27.451 6.11283 30.0768 2.76743 30.0086 1.90693L24.5354 4.3128C24.5354 4.3128 26.4024 8.37821 24.936 11.7587C24.936 11.7587 24.757 4.46208 23.7084 4.62891C23.4953 4.62891 20.861 6.04257 20.861 6.04257C20.861 6.04257 24.075 13.1285 21.6538 18.2739C21.6538 18.2739 22.5746 9.54603 19.855 6.55186L16.0016 8.86991C16.0016 8.86991 19.7612 16.1841 17.2122 22.1549C17.2122 22.1549 17.8686 12.9968 15.1917 9.43188L11.7049 12.2416C11.7049 12.2416 15.2343 19.4505 13.0774 24.4027C13.0774 24.4027 12.7961 13.7431 10.9461 12.9353C10.9461 12.9353 7.89406 15.71 7.42517 16.8514C7.42517 16.8514 9.84636 22.1198 8.34591 24.8506C8.34591 24.8506 7.42519 17.7471 6.64086 17.7119C6.64086 17.7119 3.59734 22.4183 3.28191 25.6145C3.4295 22.6335 4.33495 19.7448 5.90765 17.2378C4.15134 17.5804 2.53052 18.4441 1.24436 19.7227C1.24436 19.7227 1.72175 16.3949 6.65788 16.1051C6.65788 16.1051 9.17282 12.5314 9.84632 12.3119C9.84632 12.3119 4.93581 11.8904 1.95197 13.2514C1.95197 13.2514 4.57775 10.1168 10.7415 11.4953L14.1516 8.59772C14.1516 8.59772 7.6809 7.71967 4.94429 8.69432C4.94429 8.69432 8.09865 5.91964 15.0808 7.93917L18.832 5.62988C18.832 5.62988 13.3161 4.4094 10.0339 4.84842C10.0339 4.84842 13.4951 2.92547 19.9317 5.00647L22.6172 3.76841C22.6172 3.76841 18.5762 2.95182 17.3912 2.82012C16.2062 2.68841 16.1465 2.35475 16.1465 2.35475C18.7058 1.91626 21.333 2.22029 23.734 3.2328C23.734 3.2328 29.5056 1.09912 29.4033 0.730337Z" fill="#6C63FF"/>
</svg>
